<?xml version="1.0" encoding="UTF-8" standalone="no"?>
<!-- Created with Inkscape (http://www.inkscape.org/) -->

<svg
   xmlns:dc="http://purl.org/dc/elements/1.1/"
   xmlns:cc="http://creativecommons.org/ns#"
   xmlns:rdf="http://www.w3.org/1999/02/22-rdf-syntax-ns#"
   xmlns:svg="http://www.w3.org/2000/svg"
   xmlns="http://www.w3.org/2000/svg"
   xmlns:sodipodi="http://sodipodi.sourceforge.net/DTD/sodipodi-0.dtd"
   xmlns:inkscape="http://www.inkscape.org/namespaces/inkscape"
   width="145.68045mm"
   height="24.299431mm"
   viewBox="0 0 145.68045 24.299431"
   version="1.1"
   id="svg8"
   inkscape:version="0.92.5 (2060ec1f9f, 2020-04-08)"
   sodipodi:docname="fixeypointy.svg">
  <defs
     id="defs2" />
  <sodipodi:namedview
     id="base"
     pagecolor="#ffffff"
     bordercolor="#666666"
     borderopacity="1.0"
     inkscape:pageopacity="0.0"
     inkscape:pageshadow="2"
     inkscape:zoom="1.979899"
     inkscape:cx="245.0755"
     inkscape:cy="-19.738984"
     inkscape:document-units="mm"
     inkscape:current-layer="layer1"
     showgrid="false"
     fit-margin-top="0"
     fit-margin-left="0"
     fit-margin-right="0"
     fit-margin-bottom="0"
     inkscape:window-width="2460"
     inkscape:window-height="1409"
     inkscape:window-x="0"
     inkscape:window-y="0"
     inkscape:window-maximized="1" />
  <metadata
     id="metadata5">
    <rdf:RDF>
      <cc:Work
         rdf:about="">
        <dc:format>image/svg+xml</dc:format>
        <dc:type
           rdf:resource="http://purl.org/dc/dcmitype/StillImage" />
        <dc:title />
      </cc:Work>
    </rdf:RDF>
  </metadata>
  <g
     inkscape:label="Layer 1"
     inkscape:groupmode="layer"
     id="layer1"
     transform="translate(-50.899652,-69.711245)">
    <path
       inkscape:connector-curvature="0"
       d="m 68.878131,87.246437 h 6.697814 v -2.839758 h -3.872398 v -7.916902 h -2.825416 z"
       style="font-style:normal;font-variant:normal;font-weight:normal;font-stretch:normal;font-size:14.34221363px;line-height:125%;font-family:'Big John';-inkscape-font-specification:'Big John';text-align:end;letter-spacing:0px;word-spacing:0px;text-anchor:end;fill:#c31726;fill-opacity:1;stroke:#373737;stroke-width:0.26458332px;stroke-linecap:butt;stroke-linejoin:miter;stroke-opacity:1"
       id="path1027" />
    <path
       inkscape:connector-curvature="0"
       d="m 77.575563,87.246437 h 2.825416 v -10.75666 h -2.825416 z"
       style="font-style:normal;font-variant:normal;font-weight:normal;font-stretch:normal;font-size:14.34221363px;line-height:125%;font-family:'Big John';-inkscape-font-specification:'Big John';text-align:end;letter-spacing:0px;word-spacing:0px;text-anchor:end;fill:#c31726;fill-opacity:1;stroke:#373737;stroke-width:0.26458332px;stroke-linecap:butt;stroke-linejoin:miter;stroke-opacity:1"
       id="path1029" />
    <path
       inkscape:connector-curvature="0"
       d="m 85.401482,84.922998 v -1.864487 h 1.893172 c 0.487635,0 0.932244,0.415924 0.932244,0.932244 0,0.516319 -0.415925,0.932243 -0.932244,0.932243 z m 0,-4.230953 v -1.864487 h 1.36251 c 0.51632,0 0.932244,0.415924 0.932244,0.932244 0,0.516319 -0.415924,0.932243 -0.932244,0.932243 z m 2.481203,6.554392 c 1.706723,0 3.155287,-1.448564 3.155287,-3.155287 0,-0.97527 -0.487636,-1.87883 -1.219089,-2.466861 0.415925,-0.530662 0.688427,-1.204746 0.688427,-1.936199 0,-1.721065 -1.462906,-3.198313 -3.183972,-3.198313 h -4.747273 v 10.75666 z"
       style="font-style:normal;font-variant:normal;font-weight:normal;font-stretch:normal;font-size:14.34221363px;line-height:125%;font-family:'Big John';-inkscape-font-specification:'Big John';text-align:end;letter-spacing:0px;word-spacing:0px;text-anchor:end;fill:#c31726;fill-opacity:1;stroke:#373737;stroke-width:0.26458332px;stroke-linecap:butt;stroke-linejoin:miter;stroke-opacity:1"
       id="path1031" />
    <path
       inkscape:connector-curvature="0"
       d="m 92.744472,87.246437 h 2.825416 v -4.288322 h 3.456474 v -2.395149 h -3.456474 v -1.749751 h 3.915424 v -2.323438 h -6.74084 z"
       style="font-style:normal;font-variant:normal;font-weight:normal;font-stretch:normal;font-size:14.34221363px;line-height:125%;font-family:'Big John';-inkscape-font-specification:'Big John';text-align:end;letter-spacing:0px;word-spacing:0px;text-anchor:end;fill:#c31726;fill-opacity:1;stroke:#373737;stroke-width:0.26458332px;stroke-linecap:butt;stroke-linejoin:miter;stroke-opacity:1"
       id="path1033" />
    <path
       inkscape:connector-curvature="0"
       d="m 101.49793,87.246437 h 2.82542 v -10.75666 h -2.82542 z"
       style="font-style:normal;font-variant:normal;font-weight:normal;font-stretch:normal;font-size:14.34221363px;line-height:125%;font-family:'Big John';-inkscape-font-specification:'Big John';text-align:end;letter-spacing:0px;word-spacing:0px;text-anchor:end;fill:#c31726;fill-opacity:1;stroke:#373737;stroke-width:0.26458332px;stroke-linecap:butt;stroke-linejoin:miter;stroke-opacity:1"
       id="path1035" />
    <path
       inkscape:connector-curvature="0"
       d="m 113.08151,76.489777 -1.86449,2.681994 -1.87883,-2.681994 h -3.44213 l 3.58555,5.148855 -3.94411,5.607805 h 3.44213 l 2.23739,-3.155287 2.22304,3.155287 h 3.44213 l -3.9441,-5.607805 3.58555,-5.148855 z"
       style="font-style:normal;font-variant:normal;font-weight:normal;font-stretch:normal;font-size:14.34221363px;line-height:125%;font-family:'Big John';-inkscape-font-specification:'Big John';text-align:end;letter-spacing:0px;word-spacing:0px;text-anchor:end;fill:#c31726;fill-opacity:1;stroke:#373737;stroke-width:0.26458332px;stroke-linecap:butt;stroke-linejoin:miter;stroke-opacity:1"
       id="path1037" />
    <path
       inkscape:connector-curvature="0"
       d="m 118.09545,87.246437 h 6.68348 v -2.309096 h -3.85806 v -1.979226 h 3.41345 v -2.380807 h -3.41345 v -1.74975 h 3.85806 v -2.337781 h -6.68348 z"
       style="font-style:normal;font-variant:normal;font-weight:normal;font-stretch:normal;font-size:14.34221363px;line-height:125%;font-family:'Big John';-inkscape-font-specification:'Big John';text-align:end;letter-spacing:0px;word-spacing:0px;text-anchor:end;fill:#c31726;fill-opacity:1;stroke:#373737;stroke-width:0.26458332px;stroke-linecap:butt;stroke-linejoin:miter;stroke-opacity:1"
       id="path1039" />
    <path
       inkscape:connector-curvature="0"
       d="m 136.51691,76.489777 h -3.25569 l -2.07962,3.585553 -2.06528,-3.585553 h -3.25568 l 3.92977,6.798209 v 3.958451 h 2.79673 v -3.958451 z"
       style="font-style:normal;font-variant:normal;font-weight:normal;font-stretch:normal;font-size:14.34221363px;line-height:125%;font-family:'Big John';-inkscape-font-specification:'Big John';text-align:end;letter-spacing:0px;word-spacing:0px;text-anchor:end;fill:#c31726;fill-opacity:1;stroke:#373737;stroke-width:0.26458332px;stroke-linecap:butt;stroke-linejoin:miter;stroke-opacity:1"
       id="path1041" />
    <path
       inkscape:connector-curvature="0"
       d="m 140.55738,78.870584 h 1.74975 c 0.86053,0 1.54895,0.688427 1.54895,1.548959 0,0.860533 -0.68842,1.534617 -1.54895,1.534617 h -1.74975 z m -2.82542,8.375853 h 2.82542 v -2.8541 h 1.76409 c 2.13699,0 3.90108,-1.778435 3.90108,-3.944109 0,-2.180017 -1.77843,-3.958451 -3.95845,-3.958451 h -4.53214 z"
       style="font-style:normal;font-variant:normal;font-weight:normal;font-stretch:normal;font-size:14.34221363px;line-height:125%;font-family:'Big John';-inkscape-font-specification:'Big John';text-align:end;letter-spacing:0px;word-spacing:0px;text-anchor:end;fill:#c31726;fill-opacity:1;stroke:#373737;stroke-width:0.26458332px;stroke-linecap:butt;stroke-linejoin:miter;stroke-opacity:1"
       id="path1043" />
    <path
       inkscape:connector-curvature="0"
       d="m 147.51716,81.882449 c 0,2.968838 2.39515,5.363988 5.36399,5.363988 2.96884,0 5.37833,-2.39515 5.37833,-5.363988 0,-2.968838 -2.40949,-5.392672 -5.37833,-5.392672 -2.96884,0 -5.36399,2.423834 -5.36399,5.392672 z m 7.93125,-0.01434 c 0,1.405537 -1.14738,2.567256 -2.56726,2.567256 -1.40554,0 -2.55291,-1.161719 -2.55291,-2.567256 0,-1.419879 1.14737,-2.567256 2.55291,-2.567256 1.41988,0 2.56726,1.147377 2.56726,2.567256 z"
       style="font-style:normal;font-variant:normal;font-weight:normal;font-stretch:normal;font-size:14.34221363px;line-height:125%;font-family:'Big John';-inkscape-font-specification:'Big John';text-align:end;letter-spacing:0px;word-spacing:0px;text-anchor:end;fill:#c31726;fill-opacity:1;stroke:#373737;stroke-width:0.26458332px;stroke-linecap:butt;stroke-linejoin:miter;stroke-opacity:1"
       id="path1045" />
    <path
       inkscape:connector-curvature="0"
       d="m 160.21136,87.246437 h 2.82542 v -10.75666 h -2.82542 z"
       style="font-style:normal;font-variant:normal;font-weight:normal;font-stretch:normal;font-size:14.34221363px;line-height:125%;font-family:'Big John';-inkscape-font-specification:'Big John';text-align:end;letter-spacing:0px;word-spacing:0px;text-anchor:end;fill:#c31726;fill-opacity:1;stroke:#373737;stroke-width:0.26458332px;stroke-linecap:butt;stroke-linejoin:miter;stroke-opacity:1"
       id="path1047" />
    <path
       inkscape:connector-curvature="0"
       d="m 174.27614,87.246437 v -10.75666 h -2.82541 v 5.077143 l -5.09149,-5.077143 h -1.14738 v 10.75666 h 2.82542 v -5.091486 l 5.07714,5.091486 z"
       style="font-style:normal;font-variant:normal;font-weight:normal;font-stretch:normal;font-size:14.34221363px;line-height:125%;font-family:'Big John';-inkscape-font-specification:'Big John';text-align:end;letter-spacing:0px;word-spacing:0px;text-anchor:end;fill:#c31726;fill-opacity:1;stroke:#373737;stroke-width:0.26458332px;stroke-linecap:butt;stroke-linejoin:miter;stroke-opacity:1"
       id="path1049" />
    <path
       inkscape:connector-curvature="0"
       d="m 176.21526,79.286509 h 2.79673 v 7.959928 h 2.82542 v -7.959928 h 2.8541 v -2.811074 h -8.47625 z"
       style="font-style:normal;font-variant:normal;font-weight:normal;font-stretch:normal;font-size:14.34221363px;line-height:125%;font-family:'Big John';-inkscape-font-specification:'Big John';text-align:end;letter-spacing:0px;word-spacing:0px;text-anchor:end;fill:#c31726;fill-opacity:1;stroke:#373737;stroke-width:0.26458332px;stroke-linecap:butt;stroke-linejoin:miter;stroke-opacity:1"
       id="path1051" />
    <path
       inkscape:connector-curvature="0"
       d="m 196.35083,76.489777 h -3.25569 l -2.07962,3.585553 -2.06528,-3.585553 h -3.25568 l 3.92977,6.798209 v 3.958451 h 2.79673 v -3.958451 z"
       style="font-style:normal;font-variant:normal;font-weight:normal;font-stretch:normal;font-size:14.34221363px;line-height:125%;font-family:'Big John';-inkscape-font-specification:'Big John';text-align:end;letter-spacing:0px;word-spacing:0px;text-anchor:end;fill:#c31726;fill-opacity:1;stroke:#373737;stroke-width:0.26458332px;stroke-linecap:butt;stroke-linejoin:miter;stroke-opacity:1"
       id="path1053" />
    <g
       id="g1006"
       transform="matrix(0.04027251,-0.00851167,0.00851167,0.04027251,46.863159,73.984531)"
       style="fill:#ececec;fill-opacity:1;stroke:#373737;stroke-width:6.42782927;stroke-opacity:1">
      <g
         id="g922"
         style="fill:#ececec;fill-opacity:1;stroke:#373737;stroke-width:6.42782927;stroke-opacity:1">
        <g
           id="g920"
           style="fill:#ececec;fill-opacity:1;stroke:#373737;stroke-width:6.42782927;stroke-opacity:1">
          <rect
             id="rect918"
             height="124.512"
             width="28.209999"
             transform="matrix(0.7071,-0.7071,0.7071,0.7071,-232.661,210.601)"
             y="323.89099"
             x="123.782"
             style="fill:#ececec;fill-opacity:1;stroke:#373737;stroke-width:6.42782927;stroke-opacity:1" />
        </g>
      </g>
      <g
         id="g928"
         style="fill:#ececec;fill-opacity:1;stroke:#373737;stroke-width:6.42782927;stroke-opacity:1">
        <g
           id="g926"
           style="fill:#ececec;fill-opacity:1;stroke:#373737;stroke-width:6.42782927;stroke-opacity:1">
          <rect
             id="rect924"
             height="124.512"
             width="28.209999"
             transform="matrix(0.7071,-0.7071,0.7071,0.7071,-266.7448,196.483)"
             y="357.97501"
             x="89.697998"
             style="fill:#ececec;fill-opacity:1;stroke:#373737;stroke-width:6.42782927;stroke-opacity:1" />
        </g>
      </g>
      <g
         id="g934"
         style="fill:#ececec;fill-opacity:1;stroke:#373737;stroke-width:6.42782927;stroke-opacity:1">
        <g
           id="g932"
           style="fill:#ececec;fill-opacity:1;stroke:#373737;stroke-width:6.42782927;stroke-opacity:1">
          <path
             id="path930"
             d="m 35.663,400.332 -15.271,15.271 c -5.566,5.565 -8.348,12.876 -8.349,20.187 0,7.311 2.783,14.622 8.349,20.188 l 47.672,47.672 c 5.565,5.566 12.876,8.349 20.188,8.349 7.311,0 14.621,-2.783 20.188,-8.349 l 15.271,-15.271 z"
             inkscape:connector-curvature="0"
             style="fill:#ececec;fill-opacity:1;stroke:#373737;stroke-width:6.42782927;stroke-opacity:1" />
        </g>
      </g>
      <g
         id="g940"
         style="fill:#ececec;fill-opacity:1;stroke:#373737;stroke-width:6.42782927;stroke-opacity:1">
        <g
           id="g938"
           style="fill:#ececec;fill-opacity:1;stroke:#373737;stroke-width:6.42782927;stroke-opacity:1">
          <path
             id="path936"
             d="M 494.805,3.687 C 490.437,-0.116 484.271,-1.063 478.964,1.249 426.967,23.907 380.266,55.73 340.159,95.837 l -22.688,22.688 -117.679,117.678 -6.714,6.714 -11.362,-11.362 c -5.857,-5.857 -15.355,-5.858 -21.214,0 -5.858,5.857 -5.858,15.355 0,21.214 l 11.362,11.362 -53.878,53.878 88.047,88.047 53.878,-53.878 11.362,11.362 c 2.929,2.929 6.767,4.394 10.606,4.394 3.838,0 7.678,-1.465 10.606,-4.394 5.858,-5.857 5.858,-15.355 0,-21.214 l -11.362,-11.362 86.458,-86.458 C 430.03,182.057 475.612,104.092 499.399,19.04 500.961,13.464 499.171,7.488 494.805,3.687 Z m -150.749,166.334 -92.767,92.767 c -8.368,8.368 -20.394,10.832 -30.927,7.413 l -6.07,-6.07 133.126,-133.127 c 8.376,11.872 7.261,28.394 -3.362,39.017 z"
             inkscape:connector-curvature="0"
             style="fill:#ececec;fill-opacity:1;stroke:#373737;stroke-width:6.42782927;stroke-opacity:1" />
        </g>
      </g>
      <g
         id="g942"
         style="fill:#ececec;fill-opacity:1;stroke:#373737;stroke-width:6.42782927;stroke-opacity:1" />
      <g
         id="g944"
         style="fill:#ececec;fill-opacity:1;stroke:#373737;stroke-width:6.42782927;stroke-opacity:1" />
      <g
         id="g946"
         style="fill:#ececec;fill-opacity:1;stroke:#373737;stroke-width:6.42782927;stroke-opacity:1" />
      <g
         id="g948"
         style="fill:#ececec;fill-opacity:1;stroke:#373737;stroke-width:6.42782927;stroke-opacity:1" />
      <g
         id="g950"
         style="fill:#ececec;fill-opacity:1;stroke:#373737;stroke-width:6.42782927;stroke-opacity:1" />
      <g
         id="g952"
         style="fill:#ececec;fill-opacity:1;stroke:#373737;stroke-width:6.42782927;stroke-opacity:1" />
      <g
         id="g954"
         style="fill:#ececec;fill-opacity:1;stroke:#373737;stroke-width:6.42782927;stroke-opacity:1" />
      <g
         id="g956"
         style="fill:#ececec;fill-opacity:1;stroke:#373737;stroke-width:6.42782927;stroke-opacity:1" />
      <g
         id="g958"
         style="fill:#ececec;fill-opacity:1;stroke:#373737;stroke-width:6.42782927;stroke-opacity:1" />
      <g
         id="g960"
         style="fill:#ececec;fill-opacity:1;stroke:#373737;stroke-width:6.42782927;stroke-opacity:1" />
      <g
         id="g962"
         style="fill:#ececec;fill-opacity:1;stroke:#373737;stroke-width:6.42782927;stroke-opacity:1" />
      <g
         id="g964"
         style="fill:#ececec;fill-opacity:1;stroke:#373737;stroke-width:6.42782927;stroke-opacity:1" />
      <g
         id="g966"
         style="fill:#ececec;fill-opacity:1;stroke:#373737;stroke-width:6.42782927;stroke-opacity:1" />
      <g
         id="g968"
         style="fill:#ececec;fill-opacity:1;stroke:#373737;stroke-width:6.42782927;stroke-opacity:1" />
      <g
         id="g970"
         style="fill:#ececec;fill-opacity:1;stroke:#373737;stroke-width:6.42782927;stroke-opacity:1" />
    </g>
  </g>
</svg>
